subject01_walk1_grf.mot 
version=1 
nRows=37 
nColumns=19 
inDegrees=yes 
endheader	
time	ground_force_vx	ground_force_vy	ground_force_vz	ground_force_px	ground_force_py	ground_force_pz	1_ground_force_vx	1_ground_force_vy	1_ground_force_vz	1_ground_force_px	1_ground_force_py	1_ground_force_pz	ground_torque_x	ground_torque_y	ground_torque_z	1_ground_torque_x	1_ground_torque_y	1_ground_torque_z
-5e-07	72.21469711618492	704.0981795435096	60.47456272308399	0.3727542964747125	-0.0075	0.11227853616459715	1.40503008781489	13.699138354657752	1.1766106286740683	0.858102347619476	-0.0075	-0.06039760931496008	0.0006261559020519164	6.871774396473822	-0.004225198164584373	1.2182670802182736e-05	0.13369923532584915	-8.22066807075313e-05
0.01666616	101.9844590205389	696.3844571277573	41.487317383453984	0.36105484886144534	-0.0075	0.11167479511860907	6.3439374675369935	43.31855551141838	2.5807162160215746	0.8512499750665604	-0.0075	-0.05858375540578426	0.0008589534217990812	9.076629638860394	-0.0030661795264352123	5.3431148703969505e-05	0.5646112299652121	-0.0001907315228884997
0.03333282	120.34744743070496	671.0643738952255	27.420132761633088	0.3491251220182676	-0.0075	0.11088263982249406	15.683576925809946	87.45253808740966	3.5733683652128203	0.8472493764197709	-0.0075	-0.05721973379527897	0.001042791546052663	10.848975023829171	-0.0019765533971167685	0.00013589570679941614	1.413829191935184	-0.0002575827565391533
0.04999948	120.5467906561175	628.704533915803	20.435923628804755	0.33676292335432845	-0.0075	0.10978036957193171	27.571254399985765	143.79621848636427	4.6740692655666525	0.8467408227762044	-0.0075	-0.05710697115182923	0.00109166743962141	11.986371366746056	-0.0011698456672021515	0.0002496842971443765	2.741502220727014	-0.0002675650867484523
0.06666614	108.5081214271729	571.3948192265283	19.852401633859024	0.3243767084334776	-0.0075	0.10843599936602707	39.72172302244721	209.17131775256829	7.267397026680533	0.8484430965381916	-0.0075	-0.058080767115411575	0.0010576483019351525	11.866655999039182	-0.0007259854941110437	0.00038717482481554665	4.344043713933985	-0.00026576254695136414
0.0833328	84.40901564270114	504.22432721582544	22.185995577788418	0.31185656226613734	-0.0075	0.10700313237787014	46.99696109044168	280.74028475020333	12.352642226460958	0.8496158693701888	-0.0075	-0.05967819020943579	0.0010096429202468905	10.326335211752763	-0.0005567380104385879	0.0005621455087088917	5.749461363320223	-0.00030997867247862783
0.09999946	57.816254152830076	430.9309114883613	22.958879540726844	0.2991366446175473	-0.0075	0.10572519764275509	47.692892857940464	355.4768826161149	18.93888488831905	0.8487303594228603	-0.0075	-0.061650699164081356	0.0009959956576281216	7.618835788651806	-0.0005698990473243732	0.00082160137978961	6.2848125374899695	-0.0004701123343625196
0.11666612	33.24299061438737	355.17864742919664	23.014211786754906	0.2862487513430479	-0.0075	0.10489906459397558	40.299195099916666	430.56937247634244	27.899241124949842	0.8441222542265004	-0.0075	-0.06366253027736463	0.0009949459430478383	4.570813387702282	-0.0006449318707230839	0.0012061345845160605	5.541020740673211	-0.0007818260272039236
0.13333278	13.730680784828387	279.99983385543646	20.384804398129223	0.27380105187984055	-0.0075	0.10471366774182135	24.66102535696151	502.8944384377246	36.61218158348209	0.8353663179707566	-0.0075	-0.06541542427529529	0.0009321799337272762	2.0839172063137434	-0.0006942049725609557	0.001674244223075963	3.742824982392446	-0.0012468286678232955
0.14999944	2.052196445698055	208.05159121824994	16.463832986841272	0.26307939057306123	-0.0075	0.10481354924250244	5.606000046784936	568.3360540596101	44.97437303722498	0.8228970363031816	-0.0075	-0.06684525066731759	0.0007728271754257588	0.5940209632099475	-0.0006747947912557937	0.002111137649943538	1.6226914116954676	-0.001843341868796316
0.1666661	-2.784710233405914	142.42333263986208	12.120202313008326	0.25671621802491446	-0.0075	0.10488867715129546	-12.17528505139413	622.7020147582741	52.99183960729629	0.8079842054229432	-0.0075	-0.06788068970256682	0.0005494665617036982	0.014614563085075454	-0.0005664684899072663	0.002402372762055638	0.0638976613537078	-0.0024767084397209578
0.18333276	-3.1250921239223746	86.35043737896582	7.459157140239728	0.25732249353545916	-0.0075	0.10519179944147149	-23.980298746832926	662.6074378467583	57.23761397408447	0.7917971066968222	-0.0075	-0.06876480080420203	0.00031901837127484525	-0.048964702141109775	-0.00039388238195192833	0.002447977706109018	-0.37572914296035276	-0.003022444400284187
0.19999942	-1.704110176565809	42.6573758058295	3.766473656881011	0.26633657465380145	-0.0075	0.10599884902684767	-27.395092615238916	685.7554030213973	60.54942695727055	0.7748828626461889	-0.0075	-0.06942584615742287	0.00014519743395520498	0.02628364087447603	-0.00021010736074839818	0.002334178391395966	0.42253299459369986	-0.0033776634198883324
0.21666608	-0.4360602667706706	13.464262945305116	1.1938867829816366	0.2831917542226349	-0.0075	0.10719857712140558	-22.412303026350223	692.026226997056	61.36250972256338	0.7577014938578662	-0.0075	-0.07008967806478314	4.183388282918636e-05	0.03675662134193225	-6.97251931699292e-05	0.0021501469640425775	1.889189633903159	-0.003583683901007889
0.23333274	-0.0	0.0	0.0	0.3058025928437254	-0.0075	0.10843532898300179	-9.973818115475016	682.6049957109198	59.48844663227758	0.7401146943366889	-0.0075	-0.07066182161589607	0.0	0.0	-0.0	0.0020052284649007385	3.1950798375134073	-0.0037276999388907166
0.2499994	0.0	0.0	0.0	0.33232027473731257	-0.0075	0.10914401395325213	4.3225689079366205	662.0556961240819	51.34987029354528	0.7225920522337564	-0.0075	-0.07112506665505344	0.0	0.0	-0.0	0.0018836506287219742	3.5592650962912766	-0.003926500243764208
0.26666606	0.0	0.0	0.0	0.36108906808886443	-0.0075	0.10917401665014781	12.200070877086125	644.6109251781003	45.425608036294456	0.7044048022223315	-0.0075	-0.07148545100122729	0.0	0.0	-0.0	0.0018454204323687339	3.3728425019412547	-0.0041911563015578504
0.28333272	0.0	0.0	0.0	0.392099874763798	-0.0075	0.10834832963923727	18.567239701768322	630.8521821605001	38.198834590969035	0.6866627230823117	-0.0075	-0.07182994879828777	0.0	0.0	-0.0	0.0018200061910881623	2.315549504591502	-0.004429162182721442
0.29999938	0.0	0.0	0.0	0.42497844378879035	-0.0075	0.1070012329011691	21.04575026279734	620.1667183568769	32.77635969468917	0.6689855767664088	-0.0075	-0.07224479216592948	0.0	0.0	-0.0	0.0017592974143926634	0.8292325012090641	-0.004527060134906261
0.31666604	0.0	0.0	0.0	0.4602243486358754	-0.0075	0.10512231857232184	20.126835447050464	611.8027942207531	30.23434451016701	0.6511938367161673	-0.0075	-0.07257113313450976	0.0	-0.0	-0.0	0.001639063321830145	-0.7535706637258466	-0.004442742156868818
0.3333327	0.0	0.0	0.0	0.49760263442505226	-0.0075	0.10352671903911623	21.23269669385937	604.7563519834338	36.24876928614256	0.633331699563506	-0.0075	-0.07282997091577671	0.0	-0.0	-0.0	0.0015121567277282886	-1.8362330717013473	-0.004213200015379523
0.34999936	0.0	0.0	0.0	0.537181009513556	-0.0075	0.10287098262686181	22.961519561347856	599.2798829821219	43.98128757941467	0.6154320542863941	-0.0075	-0.0730501873947009	0.0	-0.0	-0.0	0.001338547564247712	-2.3998207495203654	-0.003969512470097433
0.36666602	0.0	0.0	0.0	0.5783103743393264	-0.0075	0.10334376174642333	29.667695403376594	595.2637113946355	55.80762867192776	0.5978452009561296	-0.0075	-0.07335874320729656	0.0	-0.0	-0.0	0.001136807058660523	-1.9654067878142392	-0.0038073217221869992
0.38333268	0.0	0.0	0.0	0.6202151322874644	-0.0075	0.1053426568635166	37.93822631136924	593.6088375064637	67.59879585072363	0.5810644445553571	-0.0075	-0.07386404244721424	0.0	-0.0	-0.0	0.0008851533392747693	-0.5407320270068213	-0.0037635119930788906
0.39999934	0.0	0.0	0.0	0.6620351754572211	-0.0075	0.108900819669613	44.85962593880336	595.4507449107822	77.09026520302038	0.5642066417080496	-0.0075	-0.07429671468055908	0.0	0.0	-0.0	0.000613019253141328	1.5125443839147061	-0.0037866550194378622
0.416666	0.0	0.0	0.0	0.7023565001816143	-0.0075	0.1136247324880479	51.07241752778568	600.94645559816	85.1400071787542	0.5475153454149716	-0.0075	-0.07456615048280625	0.0	0.0	-0.0	0.00035296734891563405	3.597916753109064	-0.0038590108979956986
0.43333266	0.0	0.0	0.0	0.7389450856087576	-0.0075	0.11885878475455998	54.54452231859082	610.9363067441852	86.01453080957631	0.5310444553612351	-0.0075	-0.07469711008618568	0.0	0.0	-0.0	0.00018066292139147795	4.668359658961235	-0.003989989364583899
0.44999932	0.0	0.0	0.0	0.7678803888743762	-0.0075	0.12305489330340189	57.35541935743134	624.4179751610618	79.45416818668178	0.5146577338590788	-0.0075	-0.07481345718518843	0.0	0.0	-0.0	0.00027501255035078604	4.171721813851724	-0.0042449668674024235
0.46666598	0.0	0.0	0.0	0.7819067029822896	-0.0075	0.12388647279429868	53.99194034960642	640.1113927822753	63.2951725851739	0.4983657497770276	-0.0075	-0.07498407399200058	0.0	0.0	-0.0	0.0007604990236439989	1.7912720779914786	-0.00481343886358234
0.48333264	0.0	0.0	0.0	0.7764223860886768	-0.0075	0.11937458058699216	52.15428905640006	656.7237256442065	47.93135548460316	0.4817719102014207	-0.0075	-0.07504701014600655	0.0	-0.0	-0.0	0.001599052619773477	-1.1694534713695963	-0.005522840277168474
0.4999993	0.0	0.0	0.0	0.7672395585041415	-0.0075	0.11227219296110985	55.13165362165318	674.7828434612829	32.11688724218015	0.4656685901224951	-0.0075	-0.07508532586201969	0.0	-0.0	-0.0	0.0024300982556237126	-4.120461402188954	-0.006222647033524817
0.51666596	0.0	0.0	0.0	0.7725666230075886	-0.0075	0.10808520724037357	70.83585348848807	696.9810233342592	23.063916316898222	0.4495898349852991	-0.0075	-0.07518622294918467	0.0	-0.0	-0.0	0.0028408068974934398	-5.654211919203834	-0.0063430653359265185
0.53333262	0.0	0.0	0.0	0.7889845185093581	-0.0075	0.1075341669711676	85.89997992150575	717.5667625379706	23.15164272261227	0.4334986683136063	-0.0075	-0.07526981734092622	0.0	-0.0	-0.0	0.0028630647296078587	-7.450137577267752	-0.006875244469713153
0.54999928	0.0	0.0	0.0	0.8079443714832714	-0.0075	0.10866571174861805	102.80690745904609	739.962991811444	30.598139142405792	0.41836622024036446	-0.0075	-0.07545920733826678	0.0	-0.0	-0.0	0.002342162673396184	-9.494066271745629	-0.007577630408400182
0.56666594	0.0	0.0	0.0	0.8240352737020193	-0.0075	0.10979802029713742	122.74598775534429	767.4904244586074	43.41872268574883	0.4032549172335023	-0.0075	-0.07562764259110512	0.0	-0.0	-0.0	0.0014785891141053814	-10.746850517865122	-0.007954208646666518
0.5833326	2.12867435950706	12.06867043198221	0.8480863133852737	0.83438128841403	-0.0075	0.10993181893073749	138.69724019535155	786.3538517609614	55.258443166115185	0.38819133892510077	-0.0075	-0.07577957929349333	1.0577933076922788e-05	-0.1672032946147552	-0.00012034015688087825	0.0006892224346987765	-10.894402617790316	-0.007840958655563732
0.59999926	7.375514276847642	38.573240720814	2.91349912693019	0.8380067395417534	-0.0075	0.10892703970679818	150.8235048410055	788.7926373963331	59.57878097452947	0.3750650641128929	-0.0075	-0.0759132853345951	3.939613053708849e-06	-0.48452690666852855	-0.00035506557112934423	8.056200912564775e-05	-9.908196704725576	-0.007260813534617644
